<svg width="148" height="22" fill="none" xmlns="http://www.w3.org/2000/svg"><g clip-path="url(#clip0)" fill="#fff"><path d="M39.842 18h-2.93v-6.094H31.2V18h-2.93V3.781h2.93v5.762h5.713V3.781h2.93V18zm11.571-2.93h-5.136L45.3 18h-3.115l5.293-14.219h2.715L55.515 18H52.4l-.987-2.93zm-4.345-2.373h3.554l-1.787-5.322-1.767 5.322zm13.505.293V18h-2.93V3.781h5.547c1.068 0 2.005.196 2.812.586.814.39 1.44.947 1.875 1.67.437.716.655 1.533.655 2.451 0 1.394-.479 2.494-1.436 3.301-.95.8-2.269 1.201-3.955 1.201h-2.568zm0-2.373h2.617c.775 0 1.364-.182 1.767-.547.41-.364.616-.885.616-1.562 0-.697-.205-1.26-.616-1.69-.41-.43-.976-.65-1.699-.664h-2.685v4.463zm13.71 2.373V18h-2.93V3.781H76.9c1.068 0 2.005.196 2.813.586.813.39 1.438.947 1.875 1.67.436.716.654 1.533.654 2.451 0 1.394-.479 2.494-1.436 3.301-.95.8-2.269 1.201-3.955 1.201h-2.568zm0-2.373H76.9c.775 0 1.364-.182 1.768-.547.41-.364.615-.885.615-1.562 0-.697-.205-1.26-.615-1.69-.41-.43-.977-.65-1.7-.664h-2.685v4.463zm15.683-.43l2.959-6.406h3.203l-4.668 9.063V18H88.48v-5.156L83.813 3.78h3.213l2.94 6.406zm11.19 5.46h6.221V18h-9.15V3.781h2.929v11.865zm17.265-3.81h-5.625v3.81h6.602V18h-9.532V3.781h9.512v2.373h-6.582v3.389h5.625v2.295zM133.479 18h-2.93l-5.703-9.355V18h-2.93V3.781h2.93l5.713 9.375V3.781h2.92V18zm3.359 0V3.781h4.375c1.25 0 2.366.283 3.349.85.99.56 1.761 1.36 2.315 2.402.553 1.035.83 2.214.83 3.535v.655c0 1.321-.274 2.496-.821 3.525a5.803 5.803 0 01-2.295 2.393c-.989.566-2.106.853-3.349.859h-4.404zm2.929-11.846v9.492h1.416c1.146 0 2.022-.374 2.627-1.123.606-.748.915-1.82.928-3.213v-.751c0-1.446-.3-2.54-.899-3.282-.599-.748-1.474-1.123-2.626-1.123h-1.446z"/><path fill-rule="evenodd" clip-rule="evenodd" d="M19.995 15.635c.007.351.005.712.005 1.064-.003.144-.003.29-.003.436v1.442c.003.719-.212 1.31-.655 1.808-.592.666-1.334.965-2.202.882-1.171-.11-2.106-.98-2.323-2.164a1.912 1.912 0 01-.037-.355 443.68 443.68 0 010-3.16 2.615 2.615 0 012.607-2.6 2.6 2.6 0 011.325.366 2.634 2.634 0 011.218 1.704c.04.17.059.365.065.577zm-.054-13.193a2.804 2.804 0 01-4.398 2.633 2.783 2.783 0 01-1.137-1.832A2.787 2.787 0 0116.627.054c.082-.017.165-.028.249-.041L16.98 0h.37l.114.017c.094.016.189.028.278.048a2.771 2.771 0 012.199 2.377zm-.008 5.766c.101.602-.096 1.132-.585 1.572a14.91 14.91 0 01-3.437 2.342c-1.189.583-2.46.979-3.77 1.173a12.88 12.88 0 01-3.579.011c-1.913-.262-3.725-.894-5.546-1.934a14.354 14.354 0 01-2.259-1.56c-.361-.31-.567-.67-.63-1.11-.004-.018-.007-.037-.014-.05l.001-.364.009-.037c.01-.047.019-.095.033-.14.193-.715.685-1.184 1.457-1.394.801-.219 1.517-.078 2.13.422a12.048 12.048 0 004.024 2.17c.94.291 1.887.423 2.81.395a7.694 7.694 0 002.713-.595c.895-.368 1.746-.895 2.601-1.602.065-.054.13-.11.195-.167a4.33 4.33 0 01.396-.318 2.384 2.384 0 012.19-.24c.68.26 1.152.792 1.26 1.426zM5.623 2.494A2.799 2.799 0 013.334 5.6a2.781 2.781 0 01-3.24-2.303A2.79 2.79 0 012.31.106c.083-.016.168-.026.25-.037L2.664.05h.37l.116.02c.093.013.185.028.277.045a2.772 2.772 0 012.197 2.378zm-.38 13.141c.008.351.007.712.005 1.064v1.88c.002.717-.213 1.306-.657 1.806-.596.666-1.342.965-2.217.882-1.176-.11-2.113-.98-2.335-2.166a2.184 2.184 0 01-.036-.353c-.002-1.009-.006-2.086 0-3.16a2.616 2.616 0 011.718-2.438 2.596 2.596 0 012.234.204 2.635 2.635 0 011.288 2.281z"/></g><defs><clipPath id="clip0"><path fill="#fff" d="M0 0h148v22H0z"/></clipPath></defs></svg>